<mxfile host="app.diagrams.net" modified="2023-08-16T11:33:14.617Z" agent="Mozilla/5.0 (X11; Linux x86_64) AppleWebKit/537.36 (KHTML, like Gecko) Chrome/115.0.0.0 Safari/537.36" etag="hIBR1Rlj2sDxTlUK53Yy" version="21.6.2" type="device">
  <diagram id="C5RBs43oDa-KdzZeNtuy" name="Page-1">
    <mxGraphModel dx="8607" dy="7900" grid="1" gridSize="10" guides="1" tooltips="1" connect="1" arrows="1" fold="1" page="1" pageScale="1" pageWidth="827" pageHeight="1169" math="0" shadow="0">
      <root>
        <mxCell id="WIyWlLk6GJQsqaUBKTNV-0" />
        <mxCell id="WIyWlLk6GJQsqaUBKTNV-1" parent="WIyWlLk6GJQsqaUBKTNV-0" />
        <mxCell id="sPHakYDiKdlwhY-Nz_Ra-153" value="" style="group" vertex="1" connectable="0" parent="WIyWlLk6GJQsqaUBKTNV-1">
          <mxGeometry x="560" y="330" width="1250" height="1380" as="geometry" />
        </mxCell>
        <mxCell id="sPHakYDiKdlwhY-Nz_Ra-120" value="" style="rounded=0;whiteSpace=wrap;html=1;" vertex="1" parent="sPHakYDiKdlwhY-Nz_Ra-153">
          <mxGeometry width="1250" height="1380" as="geometry" />
        </mxCell>
        <mxCell id="sPHakYDiKdlwhY-Nz_Ra-33" value="Bridge UI" style="rounded=1;whiteSpace=wrap;html=1;fillColor=#e1d5e7;strokeColor=#9673a6;" vertex="1" parent="sPHakYDiKdlwhY-Nz_Ra-153">
          <mxGeometry x="350" y="288.75" width="560" height="121.25" as="geometry" />
        </mxCell>
        <mxCell id="sPHakYDiKdlwhY-Nz_Ra-38" value="3. Respond with Transaction Hash" style="edgeStyle=orthogonalEdgeStyle;rounded=0;orthogonalLoop=1;jettySize=auto;html=1;entryX=0.25;entryY=1;entryDx=0;entryDy=0;exitX=0.5;exitY=0;exitDx=0;exitDy=0;" edge="1" parent="sPHakYDiKdlwhY-Nz_Ra-153" source="sPHakYDiKdlwhY-Nz_Ra-36" target="sPHakYDiKdlwhY-Nz_Ra-33">
          <mxGeometry x="0.5429" relative="1" as="geometry">
            <Array as="points">
              <mxPoint x="390" y="480" />
              <mxPoint x="490" y="480" />
            </Array>
            <mxPoint as="offset" />
          </mxGeometry>
        </mxCell>
        <mxCell id="sPHakYDiKdlwhY-Nz_Ra-36" value="Pocket Network" style="shape=hexagon;perimeter=hexagonPerimeter2;whiteSpace=wrap;html=1;fixedSize=1;fillColor=#f5f5f5;fontColor=#333333;strokeColor=#666666;" vertex="1" parent="sPHakYDiKdlwhY-Nz_Ra-153">
          <mxGeometry x="230" y="560" width="320" height="100" as="geometry" />
        </mxCell>
        <mxCell id="sPHakYDiKdlwhY-Nz_Ra-37" value="2. Post transaction with memo" style="edgeStyle=orthogonalEdgeStyle;rounded=0;orthogonalLoop=1;jettySize=auto;html=1;" edge="1" parent="sPHakYDiKdlwhY-Nz_Ra-153" source="sPHakYDiKdlwhY-Nz_Ra-33" target="sPHakYDiKdlwhY-Nz_Ra-36">
          <mxGeometry relative="1" as="geometry">
            <Array as="points">
              <mxPoint x="598" y="420" />
              <mxPoint x="598" y="420" />
            </Array>
          </mxGeometry>
        </mxCell>
        <mxCell id="sPHakYDiKdlwhY-Nz_Ra-42" value="" style="group" vertex="1" connectable="0" parent="sPHakYDiKdlwhY-Nz_Ra-153">
          <mxGeometry x="570" y="70" width="70" height="130" as="geometry" />
        </mxCell>
        <mxCell id="sPHakYDiKdlwhY-Nz_Ra-41" value="" style="ellipse;whiteSpace=wrap;html=1;fillColor=#ffe6cc;strokeColor=#d79b00;" vertex="1" parent="sPHakYDiKdlwhY-Nz_Ra-42">
          <mxGeometry width="70" height="130" as="geometry" />
        </mxCell>
        <mxCell id="sPHakYDiKdlwhY-Nz_Ra-32" value="User" style="shape=umlActor;verticalLabelPosition=bottom;verticalAlign=top;html=1;outlineConnect=0;" vertex="1" parent="sPHakYDiKdlwhY-Nz_Ra-42">
          <mxGeometry x="20" y="25" width="30" height="60" as="geometry" />
        </mxCell>
        <mxCell id="sPHakYDiKdlwhY-Nz_Ra-34" value="1. Bridge POKT from Pocket and Mint WPOKT on Ethereum" style="edgeStyle=orthogonalEdgeStyle;rounded=0;orthogonalLoop=1;jettySize=auto;html=1;exitX=0.5;exitY=1;exitDx=0;exitDy=0;" edge="1" parent="sPHakYDiKdlwhY-Nz_Ra-153" source="sPHakYDiKdlwhY-Nz_Ra-41" target="sPHakYDiKdlwhY-Nz_Ra-33">
          <mxGeometry relative="1" as="geometry">
            <mxPoint x="260" y="200" as="sourcePoint" />
            <Array as="points">
              <mxPoint x="605" y="220" />
              <mxPoint x="605" y="220" />
            </Array>
          </mxGeometry>
        </mxCell>
        <mxCell id="sPHakYDiKdlwhY-Nz_Ra-39" value="4. Display Mint Pending" style="edgeStyle=orthogonalEdgeStyle;rounded=0;orthogonalLoop=1;jettySize=auto;html=1;entryX=0;entryY=0;entryDx=0;entryDy=0;exitX=0;exitY=0.25;exitDx=0;exitDy=0;" edge="1" parent="sPHakYDiKdlwhY-Nz_Ra-153" source="sPHakYDiKdlwhY-Nz_Ra-33" target="sPHakYDiKdlwhY-Nz_Ra-41">
          <mxGeometry x="-0.1209" relative="1" as="geometry">
            <mxPoint x="280" y="345" as="sourcePoint" />
            <mxPoint x="619.7183770355482" y="181.01825511937227" as="targetPoint" />
            <Array as="points">
              <mxPoint x="270" y="319" />
              <mxPoint x="270" y="90" />
              <mxPoint x="580" y="90" />
            </Array>
            <mxPoint as="offset" />
          </mxGeometry>
        </mxCell>
        <mxCell id="sPHakYDiKdlwhY-Nz_Ra-77" style="edgeStyle=orthogonalEdgeStyle;rounded=0;orthogonalLoop=1;jettySize=auto;html=1;entryX=0;entryY=0.5;entryDx=0;entryDy=0;exitX=0.25;exitY=0;exitDx=0;exitDy=0;" edge="1" parent="sPHakYDiKdlwhY-Nz_Ra-153" source="sPHakYDiKdlwhY-Nz_Ra-33" target="sPHakYDiKdlwhY-Nz_Ra-41">
          <mxGeometry relative="1" as="geometry">
            <Array as="points">
              <mxPoint x="490" y="135" />
            </Array>
          </mxGeometry>
        </mxCell>
        <mxCell id="sPHakYDiKdlwhY-Nz_Ra-78" value="17. Display Mint Success" style="edgeLabel;html=1;align=center;verticalAlign=middle;resizable=0;points=[];" vertex="1" connectable="0" parent="sPHakYDiKdlwhY-Nz_Ra-77">
          <mxGeometry x="-0.095" relative="1" as="geometry">
            <mxPoint as="offset" />
          </mxGeometry>
        </mxCell>
        <mxCell id="sPHakYDiKdlwhY-Nz_Ra-43" value="wPOKT Validator Node/s" style="rounded=1;whiteSpace=wrap;html=1;fillColor=#dae8fc;strokeColor=#6c8ebf;" vertex="1" parent="sPHakYDiKdlwhY-Nz_Ra-153">
          <mxGeometry x="350" y="770" width="560" height="120" as="geometry" />
        </mxCell>
        <mxCell id="sPHakYDiKdlwhY-Nz_Ra-44" value="5. Monitor for new transactions to the vault" style="edgeStyle=orthogonalEdgeStyle;rounded=0;orthogonalLoop=1;jettySize=auto;html=1;endArrow=none;endFill=0;startArrow=classic;startFill=1;entryX=0.25;entryY=0;entryDx=0;entryDy=0;" edge="1" parent="sPHakYDiKdlwhY-Nz_Ra-153" source="sPHakYDiKdlwhY-Nz_Ra-36" target="sPHakYDiKdlwhY-Nz_Ra-43">
          <mxGeometry x="0.4286" relative="1" as="geometry">
            <Array as="points">
              <mxPoint x="390" y="690" />
              <mxPoint x="490" y="690" />
            </Array>
            <mxPoint y="-1" as="offset" />
          </mxGeometry>
        </mxCell>
        <mxCell id="sPHakYDiKdlwhY-Nz_Ra-45" value="MongoDB Replica Set" style="shape=cylinder3;whiteSpace=wrap;html=1;boundedLbl=1;backgroundOutline=1;size=15;fillColor=#f8cecc;strokeColor=#b85450;" vertex="1" parent="sPHakYDiKdlwhY-Nz_Ra-153">
          <mxGeometry x="350" y="1120" width="560" height="132.5" as="geometry" />
        </mxCell>
        <mxCell id="sPHakYDiKdlwhY-Nz_Ra-74" value="&lt;span style=&quot;color: rgb(0, 0, 0); font-family: Helvetica; font-size: 11px; font-style: normal; font-variant-ligatures: normal; font-variant-caps: normal; font-weight: 400; letter-spacing: normal; orphans: 2; text-align: center; text-indent: 0px; text-transform: none; widows: 2; word-spacing: 0px; -webkit-text-stroke-width: 0px; background-color: rgb(255, 255, 255); text-decoration-thickness: initial; text-decoration-style: initial; text-decoration-color: initial; float: none; display: inline !important;&quot;&gt;10. Read &quot;mint&quot; status&lt;/span&gt;" style="edgeStyle=orthogonalEdgeStyle;rounded=0;orthogonalLoop=1;jettySize=auto;html=1;entryX=0;entryY=0.5;entryDx=0;entryDy=0;entryPerimeter=0;startArrow=classic;startFill=1;endArrow=none;endFill=0;" edge="1" parent="sPHakYDiKdlwhY-Nz_Ra-153" source="sPHakYDiKdlwhY-Nz_Ra-33" target="sPHakYDiKdlwhY-Nz_Ra-45">
          <mxGeometry relative="1" as="geometry">
            <Array as="points">
              <mxPoint x="140" y="370" />
              <mxPoint x="140" y="1190" />
              <mxPoint x="350" y="1190" />
            </Array>
          </mxGeometry>
        </mxCell>
        <mxCell id="sPHakYDiKdlwhY-Nz_Ra-75" value="&lt;span style=&quot;color: rgb(0, 0, 0); font-family: Helvetica; font-size: 11px; font-style: normal; font-variant-ligatures: normal; font-variant-caps: normal; font-weight: 400; letter-spacing: normal; orphans: 2; text-align: center; text-indent: 0px; text-transform: none; widows: 2; word-spacing: 0px; -webkit-text-stroke-width: 0px; background-color: rgb(255, 255, 255); text-decoration-thickness: initial; text-decoration-style: initial; text-decoration-color: initial; float: none; display: inline !important;&quot;&gt;16. Read &quot;mint&quot; status&lt;/span&gt;" style="edgeStyle=orthogonalEdgeStyle;rounded=0;orthogonalLoop=1;jettySize=auto;html=1;entryX=1;entryY=0;entryDx=0;entryDy=91.875;entryPerimeter=0;startArrow=classic;startFill=1;endArrow=none;endFill=0;exitX=1;exitY=0.75;exitDx=0;exitDy=0;" edge="1" parent="sPHakYDiKdlwhY-Nz_Ra-153" source="sPHakYDiKdlwhY-Nz_Ra-33" target="sPHakYDiKdlwhY-Nz_Ra-45">
          <mxGeometry x="-0.0951" relative="1" as="geometry">
            <Array as="points">
              <mxPoint x="1130" y="380" />
              <mxPoint x="1130" y="1212" />
            </Array>
            <mxPoint as="offset" />
          </mxGeometry>
        </mxCell>
        <mxCell id="sPHakYDiKdlwhY-Nz_Ra-47" value="&lt;span style=&quot;border-color: var(--border-color); color: rgb(0, 0, 0); font-family: Helvetica; font-size: 11px; font-style: normal; font-variant-ligatures: normal; font-variant-caps: normal; font-weight: 400; letter-spacing: normal; orphans: 2; text-align: center; text-indent: 0px; text-transform: none; widows: 2; word-spacing: 0px; -webkit-text-stroke-width: 0px; background-color: rgb(255, 255, 255); text-decoration-thickness: initial; text-decoration-style: initial; text-decoration-color: initial; float: none; display: inline !important;&quot;&gt;7. Wait for enough block confirmations &amp;amp; mark as &quot;confirmed&quot;&lt;/span&gt;" style="edgeStyle=orthogonalEdgeStyle;rounded=0;orthogonalLoop=1;jettySize=auto;html=1;entryX=0.145;entryY=0;entryDx=0;entryDy=4.35;entryPerimeter=0;startArrow=classic;startFill=1;exitX=0.25;exitY=1;exitDx=0;exitDy=0;" edge="1" parent="sPHakYDiKdlwhY-Nz_Ra-153" source="sPHakYDiKdlwhY-Nz_Ra-43" target="sPHakYDiKdlwhY-Nz_Ra-45">
          <mxGeometry x="-0.6589" relative="1" as="geometry">
            <mxPoint x="470" y="940" as="sourcePoint" />
            <mxPoint x="510.5799999999999" y="1513.4500000000003" as="targetPoint" />
            <Array as="points">
              <mxPoint x="490" y="960" />
              <mxPoint x="431" y="960" />
            </Array>
            <mxPoint as="offset" />
          </mxGeometry>
        </mxCell>
        <mxCell id="sPHakYDiKdlwhY-Nz_Ra-68" value="&lt;span style=&quot;color: rgb(0, 0, 0); font-family: Helvetica; font-size: 11px; font-style: normal; font-variant-ligatures: normal; font-variant-caps: normal; font-weight: 400; letter-spacing: normal; orphans: 2; text-align: center; text-indent: 0px; text-transform: none; widows: 2; word-spacing: 0px; -webkit-text-stroke-width: 0px; background-color: rgb(255, 255, 255); text-decoration-thickness: initial; text-decoration-style: initial; text-decoration-color: initial; float: none; display: inline !important;&quot;&gt;6. Validate transaction and store &quot;mint&quot; in DB as &quot;pending&quot;&lt;/span&gt;&lt;br style=&quot;border-color: var(--border-color); color: rgb(0, 0, 0); font-family: Helvetica; font-size: 11px; font-style: normal; font-variant-ligatures: normal; font-variant-caps: normal; font-weight: 400; letter-spacing: normal; orphans: 2; text-align: center; text-indent: 0px; text-transform: none; widows: 2; word-spacing: 0px; -webkit-text-stroke-width: 0px; text-decoration-thickness: initial; text-decoration-style: initial; text-decoration-color: initial;&quot;&gt;" style="edgeStyle=orthogonalEdgeStyle;rounded=0;orthogonalLoop=1;jettySize=auto;html=1;entryX=0;entryY=0;entryDx=0;entryDy=40.625;entryPerimeter=0;exitX=0;exitY=0.25;exitDx=0;exitDy=0;" edge="1" parent="sPHakYDiKdlwhY-Nz_Ra-153" source="sPHakYDiKdlwhY-Nz_Ra-43" target="sPHakYDiKdlwhY-Nz_Ra-45">
          <mxGeometry x="-0.2743" relative="1" as="geometry">
            <Array as="points">
              <mxPoint x="230" y="800" />
              <mxPoint x="230" y="1160" />
              <mxPoint x="310" y="1160" />
              <mxPoint x="350" y="1161" />
            </Array>
            <mxPoint y="-1" as="offset" />
          </mxGeometry>
        </mxCell>
        <mxCell id="sPHakYDiKdlwhY-Nz_Ra-69" value="&lt;span style=&quot;border-color: var(--border-color); color: rgb(0, 0, 0); font-family: Helvetica; font-size: 11px; font-style: normal; font-variant-ligatures: normal; font-variant-caps: normal; font-weight: 400; letter-spacing: normal; orphans: 2; text-align: center; text-indent: 0px; text-transform: none; widows: 2; word-spacing: 0px; -webkit-text-stroke-width: 0px; background-color: rgb(255, 255, 255); text-decoration-thickness: initial; text-decoration-style: initial; text-decoration-color: initial; float: none; display: inline !important;&quot;&gt;8. Sign &quot;mint&quot; data &amp;amp; store signature in DB&lt;/span&gt;" style="edgeStyle=orthogonalEdgeStyle;rounded=0;orthogonalLoop=1;jettySize=auto;html=1;exitX=0.5;exitY=1;exitDx=0;exitDy=0;entryX=0.5;entryY=0;entryDx=0;entryDy=0;entryPerimeter=0;" edge="1" parent="sPHakYDiKdlwhY-Nz_Ra-153" source="sPHakYDiKdlwhY-Nz_Ra-43" target="sPHakYDiKdlwhY-Nz_Ra-45">
          <mxGeometry x="-0.0435" relative="1" as="geometry">
            <Array as="points">
              <mxPoint x="630" y="970" />
              <mxPoint x="630" y="970" />
            </Array>
            <mxPoint y="1" as="offset" />
          </mxGeometry>
        </mxCell>
        <mxCell id="sPHakYDiKdlwhY-Nz_Ra-72" value="&lt;span style=&quot;color: rgb(0, 0, 0); font-family: Helvetica; font-size: 11px; font-style: normal; font-variant-ligatures: normal; font-variant-caps: normal; font-weight: 400; letter-spacing: normal; orphans: 2; text-align: center; text-indent: 0px; text-transform: none; widows: 2; word-spacing: 0px; -webkit-text-stroke-width: 0px; background-color: rgb(255, 255, 255); text-decoration-thickness: initial; text-decoration-style: initial; text-decoration-color: initial; float: none; display: inline !important;&quot;&gt;9. Once all signatures are obtained, mark &quot;mint&quot; as &quot;signed&quot;&lt;/span&gt;" style="edgeStyle=orthogonalEdgeStyle;rounded=0;orthogonalLoop=1;jettySize=auto;html=1;entryX=0.855;entryY=0;entryDx=0;entryDy=4.35;entryPerimeter=0;exitX=0.75;exitY=1;exitDx=0;exitDy=0;" edge="1" parent="sPHakYDiKdlwhY-Nz_Ra-153" source="sPHakYDiKdlwhY-Nz_Ra-43" target="sPHakYDiKdlwhY-Nz_Ra-45">
          <mxGeometry x="0.3562" y="1" relative="1" as="geometry">
            <mxPoint x="870" y="1420" as="targetPoint" />
            <Array as="points">
              <mxPoint x="770" y="960" />
              <mxPoint x="829" y="960" />
            </Array>
            <mxPoint as="offset" />
          </mxGeometry>
        </mxCell>
        <mxCell id="sPHakYDiKdlwhY-Nz_Ra-73" value="&lt;span style=&quot;color: rgb(0, 0, 0); font-family: Helvetica; font-size: 11px; font-style: normal; font-variant-ligatures: normal; font-variant-caps: normal; font-weight: 400; letter-spacing: normal; orphans: 2; text-align: center; text-indent: 0px; text-transform: none; widows: 2; word-spacing: 0px; -webkit-text-stroke-width: 0px; background-color: rgb(255, 255, 255); text-decoration-thickness: initial; text-decoration-style: initial; text-decoration-color: initial; float: none; display: inline !important;&quot;&gt;15. Mark &quot;mint&quot; as &quot;success&quot;&lt;/span&gt;" style="edgeStyle=orthogonalEdgeStyle;rounded=0;orthogonalLoop=1;jettySize=auto;html=1;entryX=1;entryY=0;entryDx=0;entryDy=40.625;entryPerimeter=0;exitX=1;exitY=0.5;exitDx=0;exitDy=0;" edge="1" parent="sPHakYDiKdlwhY-Nz_Ra-153" source="sPHakYDiKdlwhY-Nz_Ra-43" target="sPHakYDiKdlwhY-Nz_Ra-45">
          <mxGeometry relative="1" as="geometry">
            <mxPoint x="910" y="950" as="sourcePoint" />
            <mxPoint x="910" y="1450" as="targetPoint" />
            <Array as="points">
              <mxPoint x="1030" y="830" />
              <mxPoint x="1030" y="1161" />
            </Array>
          </mxGeometry>
        </mxCell>
        <mxCell id="sPHakYDiKdlwhY-Nz_Ra-57" value="11. Notify User that Mint is ready for processing" style="edgeStyle=orthogonalEdgeStyle;rounded=0;orthogonalLoop=1;jettySize=auto;html=1;exitX=0.75;exitY=0;exitDx=0;exitDy=0;entryX=1;entryY=0.5;entryDx=0;entryDy=0;" edge="1" parent="sPHakYDiKdlwhY-Nz_Ra-153" source="sPHakYDiKdlwhY-Nz_Ra-33" target="sPHakYDiKdlwhY-Nz_Ra-41">
          <mxGeometry x="-0.1947" y="-2" relative="1" as="geometry">
            <Array as="points">
              <mxPoint x="770" y="135" />
            </Array>
            <mxPoint as="offset" />
          </mxGeometry>
        </mxCell>
        <mxCell id="sPHakYDiKdlwhY-Nz_Ra-59" value="12. Click on Process Mint button" style="edgeStyle=orthogonalEdgeStyle;rounded=0;orthogonalLoop=1;jettySize=auto;html=1;exitX=1;exitY=0;exitDx=0;exitDy=0;" edge="1" parent="sPHakYDiKdlwhY-Nz_Ra-153" source="sPHakYDiKdlwhY-Nz_Ra-41">
          <mxGeometry x="0.4665" relative="1" as="geometry">
            <mxPoint x="1070" y="400" as="sourcePoint" />
            <mxPoint x="910" y="349" as="targetPoint" />
            <Array as="points">
              <mxPoint x="970" y="89" />
              <mxPoint x="970" y="349" />
            </Array>
            <mxPoint as="offset" />
          </mxGeometry>
        </mxCell>
        <mxCell id="sPHakYDiKdlwhY-Nz_Ra-63" value="14. Monitor for &quot;Mint&quot; events" style="edgeStyle=orthogonalEdgeStyle;rounded=0;orthogonalLoop=1;jettySize=auto;html=1;startArrow=classic;startFill=1;endArrow=none;endFill=0;entryX=0.75;entryY=0;entryDx=0;entryDy=0;" edge="1" parent="sPHakYDiKdlwhY-Nz_Ra-153" source="sPHakYDiKdlwhY-Nz_Ra-60" target="sPHakYDiKdlwhY-Nz_Ra-43">
          <mxGeometry x="-0.7143" relative="1" as="geometry">
            <mxPoint x="605" y="1840" as="targetPoint" />
            <mxPoint y="1" as="offset" />
          </mxGeometry>
        </mxCell>
        <mxCell id="sPHakYDiKdlwhY-Nz_Ra-60" value="Ethereum Network" style="shape=hexagon;perimeter=hexagonPerimeter2;whiteSpace=wrap;html=1;fixedSize=1;fillColor=#f5f5f5;fontColor=#333333;strokeColor=#666666;" vertex="1" parent="sPHakYDiKdlwhY-Nz_Ra-153">
          <mxGeometry x="710" y="560" width="320" height="100" as="geometry" />
        </mxCell>
        <mxCell id="sPHakYDiKdlwhY-Nz_Ra-67" value="&lt;span style=&quot;color: rgb(0, 0, 0); font-family: Helvetica; font-size: 11px; font-style: normal; font-variant-ligatures: normal; font-variant-caps: normal; font-weight: 400; letter-spacing: normal; orphans: 2; text-align: center; text-indent: 0px; text-transform: none; widows: 2; word-spacing: 0px; -webkit-text-stroke-width: 0px; background-color: rgb(255, 255, 255); text-decoration-thickness: initial; text-decoration-style: initial; text-decoration-color: initial; float: none; display: inline !important;&quot;&gt;13. Submit mint transaction with data &amp;amp; signatures from DB&lt;/span&gt;" style="edgeStyle=orthogonalEdgeStyle;rounded=0;orthogonalLoop=1;jettySize=auto;html=1;entryX=0.5;entryY=0;entryDx=0;entryDy=0;" edge="1" parent="sPHakYDiKdlwhY-Nz_Ra-153" source="sPHakYDiKdlwhY-Nz_Ra-33" target="sPHakYDiKdlwhY-Nz_Ra-60">
          <mxGeometry x="-0.3684" relative="1" as="geometry">
            <Array as="points">
              <mxPoint x="830" y="500" />
              <mxPoint x="870" y="500" />
            </Array>
            <mxPoint as="offset" />
          </mxGeometry>
        </mxCell>
        <mxCell id="sPHakYDiKdlwhY-Nz_Ra-121" value="&lt;font style=&quot;font-size: 18px;&quot;&gt;Mint Flow&lt;/font&gt;" style="text;html=1;strokeColor=none;fillColor=none;align=center;verticalAlign=middle;whiteSpace=wrap;rounded=0;" vertex="1" parent="sPHakYDiKdlwhY-Nz_Ra-153">
          <mxGeometry x="540" y="1310" width="180" height="30" as="geometry" />
        </mxCell>
        <mxCell id="sPHakYDiKdlwhY-Nz_Ra-158" value="" style="group" vertex="1" connectable="0" parent="WIyWlLk6GJQsqaUBKTNV-1">
          <mxGeometry x="-610" y="310" width="860" height="960" as="geometry" />
        </mxCell>
        <mxCell id="sPHakYDiKdlwhY-Nz_Ra-123" value="" style="rounded=0;whiteSpace=wrap;html=1;" vertex="1" parent="sPHakYDiKdlwhY-Nz_Ra-158">
          <mxGeometry width="860" height="960" as="geometry" />
        </mxCell>
        <mxCell id="sPHakYDiKdlwhY-Nz_Ra-93" value="Bridge UI" style="rounded=1;whiteSpace=wrap;html=1;fillColor=#e1d5e7;strokeColor=#9673a6;" vertex="1" parent="sPHakYDiKdlwhY-Nz_Ra-158">
          <mxGeometry x="150" y="130" width="560" height="121.25" as="geometry" />
        </mxCell>
        <mxCell id="sPHakYDiKdlwhY-Nz_Ra-96" value="Pocket Network" style="shape=hexagon;perimeter=hexagonPerimeter2;whiteSpace=wrap;html=1;fixedSize=1;fillColor=#f5f5f5;fontColor=#333333;strokeColor=#666666;" vertex="1" parent="sPHakYDiKdlwhY-Nz_Ra-158">
          <mxGeometry x="170" y="350" width="240" height="100" as="geometry" />
        </mxCell>
        <mxCell id="sPHakYDiKdlwhY-Nz_Ra-116" value="read-and-write" style="edgeStyle=orthogonalEdgeStyle;rounded=0;orthogonalLoop=1;jettySize=auto;html=1;exitX=0.25;exitY=1;exitDx=0;exitDy=0;startArrow=classic;startFill=1;" edge="1" parent="sPHakYDiKdlwhY-Nz_Ra-158" source="sPHakYDiKdlwhY-Nz_Ra-93" target="sPHakYDiKdlwhY-Nz_Ra-96">
          <mxGeometry relative="1" as="geometry" />
        </mxCell>
        <mxCell id="sPHakYDiKdlwhY-Nz_Ra-105" value="wPOKT Validator Node" style="rounded=1;whiteSpace=wrap;html=1;fillColor=#dae8fc;strokeColor=#6c8ebf;" vertex="1" parent="sPHakYDiKdlwhY-Nz_Ra-158">
          <mxGeometry x="150" y="530" width="560" height="120" as="geometry" />
        </mxCell>
        <mxCell id="sPHakYDiKdlwhY-Nz_Ra-113" value="read-and-write" style="edgeStyle=orthogonalEdgeStyle;rounded=0;orthogonalLoop=1;jettySize=auto;html=1;entryX=0.25;entryY=0;entryDx=0;entryDy=0;exitX=0.5;exitY=1;exitDx=0;exitDy=0;startArrow=classic;startFill=1;" edge="1" parent="sPHakYDiKdlwhY-Nz_Ra-158" source="sPHakYDiKdlwhY-Nz_Ra-96" target="sPHakYDiKdlwhY-Nz_Ra-105">
          <mxGeometry relative="1" as="geometry" />
        </mxCell>
        <mxCell id="sPHakYDiKdlwhY-Nz_Ra-106" value="MongoDB Replica Set" style="shape=cylinder3;whiteSpace=wrap;html=1;boundedLbl=1;backgroundOutline=1;size=15;fillColor=#f8cecc;strokeColor=#b85450;" vertex="1" parent="sPHakYDiKdlwhY-Nz_Ra-158">
          <mxGeometry x="150" y="730" width="560" height="132.5" as="geometry" />
        </mxCell>
        <mxCell id="sPHakYDiKdlwhY-Nz_Ra-114" value="read-only" style="edgeStyle=orthogonalEdgeStyle;rounded=0;orthogonalLoop=1;jettySize=auto;html=1;entryX=1;entryY=0.5;entryDx=0;entryDy=0;entryPerimeter=0;exitX=1;exitY=0.5;exitDx=0;exitDy=0;startArrow=classic;startFill=1;endArrow=none;endFill=0;" edge="1" parent="sPHakYDiKdlwhY-Nz_Ra-158" source="sPHakYDiKdlwhY-Nz_Ra-93" target="sPHakYDiKdlwhY-Nz_Ra-106">
          <mxGeometry x="-0.0664" relative="1" as="geometry">
            <Array as="points">
              <mxPoint x="760" y="190" />
              <mxPoint x="760" y="797" />
            </Array>
            <mxPoint y="-1" as="offset" />
          </mxGeometry>
        </mxCell>
        <mxCell id="sPHakYDiKdlwhY-Nz_Ra-115" value="read-and-write" style="edgeStyle=orthogonalEdgeStyle;rounded=0;orthogonalLoop=1;jettySize=auto;html=1;startArrow=classic;startFill=1;" edge="1" parent="sPHakYDiKdlwhY-Nz_Ra-158" source="sPHakYDiKdlwhY-Nz_Ra-105" target="sPHakYDiKdlwhY-Nz_Ra-106">
          <mxGeometry relative="1" as="geometry" />
        </mxCell>
        <mxCell id="sPHakYDiKdlwhY-Nz_Ra-110" value="Ethereum Network" style="shape=hexagon;perimeter=hexagonPerimeter2;whiteSpace=wrap;html=1;fixedSize=1;fillColor=#f5f5f5;fontColor=#333333;strokeColor=#666666;" vertex="1" parent="sPHakYDiKdlwhY-Nz_Ra-158">
          <mxGeometry x="450" y="350" width="240" height="100" as="geometry" />
        </mxCell>
        <mxCell id="sPHakYDiKdlwhY-Nz_Ra-117" value="read-and-write" style="edgeStyle=orthogonalEdgeStyle;rounded=0;orthogonalLoop=1;jettySize=auto;html=1;exitX=0.75;exitY=1;exitDx=0;exitDy=0;startArrow=classic;startFill=1;" edge="1" parent="sPHakYDiKdlwhY-Nz_Ra-158" source="sPHakYDiKdlwhY-Nz_Ra-93" target="sPHakYDiKdlwhY-Nz_Ra-110">
          <mxGeometry relative="1" as="geometry" />
        </mxCell>
        <mxCell id="sPHakYDiKdlwhY-Nz_Ra-112" value="read-only" style="edgeStyle=orthogonalEdgeStyle;rounded=0;orthogonalLoop=1;jettySize=auto;html=1;entryX=0.5;entryY=1;entryDx=0;entryDy=0;exitX=0.75;exitY=0;exitDx=0;exitDy=0;startArrow=classic;startFill=1;endArrow=none;endFill=0;" edge="1" parent="sPHakYDiKdlwhY-Nz_Ra-158" source="sPHakYDiKdlwhY-Nz_Ra-105" target="sPHakYDiKdlwhY-Nz_Ra-110">
          <mxGeometry relative="1" as="geometry" />
        </mxCell>
        <mxCell id="sPHakYDiKdlwhY-Nz_Ra-124" value="&lt;font style=&quot;font-size: 18px;&quot;&gt;Architecture&lt;/font&gt;" style="text;html=1;strokeColor=none;fillColor=none;align=center;verticalAlign=middle;whiteSpace=wrap;rounded=0;" vertex="1" parent="sPHakYDiKdlwhY-Nz_Ra-158">
          <mxGeometry x="340" y="891.25" width="180" height="30" as="geometry" />
        </mxCell>
        <mxCell id="sPHakYDiKdlwhY-Nz_Ra-159" value="" style="group" vertex="1" connectable="0" parent="WIyWlLk6GJQsqaUBKTNV-1">
          <mxGeometry x="2285" y="320" width="1250" height="1380" as="geometry" />
        </mxCell>
        <mxCell id="sPHakYDiKdlwhY-Nz_Ra-125" value="" style="rounded=0;whiteSpace=wrap;html=1;" vertex="1" parent="sPHakYDiKdlwhY-Nz_Ra-159">
          <mxGeometry width="1250" height="1380" as="geometry" />
        </mxCell>
        <mxCell id="sPHakYDiKdlwhY-Nz_Ra-134" value="Bridge UI" style="rounded=1;whiteSpace=wrap;html=1;fillColor=#e1d5e7;strokeColor=#9673a6;" vertex="1" parent="sPHakYDiKdlwhY-Nz_Ra-159">
          <mxGeometry x="345" y="298.75" width="560" height="121.25" as="geometry" />
        </mxCell>
        <mxCell id="sPHakYDiKdlwhY-Nz_Ra-135" value="" style="edgeStyle=orthogonalEdgeStyle;rounded=0;orthogonalLoop=1;jettySize=auto;html=1;entryX=0.25;entryY=1;entryDx=0;entryDy=0;exitX=0.5;exitY=0;exitDx=0;exitDy=0;" edge="1" parent="sPHakYDiKdlwhY-Nz_Ra-159" source="sPHakYDiKdlwhY-Nz_Ra-137" target="sPHakYDiKdlwhY-Nz_Ra-134">
          <mxGeometry x="0.5429" relative="1" as="geometry">
            <Array as="points">
              <mxPoint x="385" y="490" />
              <mxPoint x="485" y="490" />
            </Array>
            <mxPoint as="offset" />
          </mxGeometry>
        </mxCell>
        <mxCell id="sPHakYDiKdlwhY-Nz_Ra-137" value="Pocket Network" style="shape=hexagon;perimeter=hexagonPerimeter2;whiteSpace=wrap;html=1;fixedSize=1;fillColor=#f5f5f5;fontColor=#333333;strokeColor=#666666;" vertex="1" parent="sPHakYDiKdlwhY-Nz_Ra-159">
          <mxGeometry x="225" y="570" width="320" height="100" as="geometry" />
        </mxCell>
        <mxCell id="sPHakYDiKdlwhY-Nz_Ra-138" value="" style="group" vertex="1" connectable="0" parent="sPHakYDiKdlwhY-Nz_Ra-159">
          <mxGeometry x="565" y="80" width="70" height="130" as="geometry" />
        </mxCell>
        <mxCell id="sPHakYDiKdlwhY-Nz_Ra-139" value="" style="ellipse;whiteSpace=wrap;html=1;fillColor=#ffe6cc;strokeColor=#d79b00;" vertex="1" parent="sPHakYDiKdlwhY-Nz_Ra-138">
          <mxGeometry width="70" height="130" as="geometry" />
        </mxCell>
        <mxCell id="sPHakYDiKdlwhY-Nz_Ra-140" value="User" style="shape=umlActor;verticalLabelPosition=bottom;verticalAlign=top;html=1;outlineConnect=0;" vertex="1" parent="sPHakYDiKdlwhY-Nz_Ra-138">
          <mxGeometry x="20" y="25" width="30" height="60" as="geometry" />
        </mxCell>
        <mxCell id="sPHakYDiKdlwhY-Nz_Ra-126" value="1. Burn and Bridge wPOKT from Ethereum to POKT on Pocket" style="edgeStyle=orthogonalEdgeStyle;rounded=0;orthogonalLoop=1;jettySize=auto;html=1;exitX=0.5;exitY=1;exitDx=0;exitDy=0;" edge="1" parent="sPHakYDiKdlwhY-Nz_Ra-159" source="sPHakYDiKdlwhY-Nz_Ra-139" target="sPHakYDiKdlwhY-Nz_Ra-134">
          <mxGeometry x="-0.0006" relative="1" as="geometry">
            <mxPoint x="255" y="210" as="sourcePoint" />
            <Array as="points">
              <mxPoint x="600" y="230" />
              <mxPoint x="600" y="230" />
            </Array>
            <mxPoint as="offset" />
          </mxGeometry>
        </mxCell>
        <mxCell id="sPHakYDiKdlwhY-Nz_Ra-128" value="4. Display Burn Pending" style="edgeStyle=orthogonalEdgeStyle;rounded=0;orthogonalLoop=1;jettySize=auto;html=1;entryX=0;entryY=0;entryDx=0;entryDy=0;exitX=0;exitY=0.25;exitDx=0;exitDy=0;" edge="1" parent="sPHakYDiKdlwhY-Nz_Ra-159" source="sPHakYDiKdlwhY-Nz_Ra-134" target="sPHakYDiKdlwhY-Nz_Ra-139">
          <mxGeometry x="-0.1223" relative="1" as="geometry">
            <mxPoint x="275" y="355" as="sourcePoint" />
            <mxPoint x="614.7183770355482" y="191.01825511937227" as="targetPoint" />
            <Array as="points">
              <mxPoint x="265" y="329" />
              <mxPoint x="265" y="100" />
              <mxPoint x="575" y="100" />
            </Array>
            <mxPoint as="offset" />
          </mxGeometry>
        </mxCell>
        <mxCell id="sPHakYDiKdlwhY-Nz_Ra-132" style="edgeStyle=orthogonalEdgeStyle;rounded=0;orthogonalLoop=1;jettySize=auto;html=1;entryX=0;entryY=0.5;entryDx=0;entryDy=0;exitX=0.25;exitY=0;exitDx=0;exitDy=0;" edge="1" parent="sPHakYDiKdlwhY-Nz_Ra-159" source="sPHakYDiKdlwhY-Nz_Ra-134" target="sPHakYDiKdlwhY-Nz_Ra-139">
          <mxGeometry relative="1" as="geometry">
            <Array as="points">
              <mxPoint x="485" y="145" />
            </Array>
          </mxGeometry>
        </mxCell>
        <mxCell id="sPHakYDiKdlwhY-Nz_Ra-133" value="17. Display Burn Success" style="edgeLabel;html=1;align=center;verticalAlign=middle;resizable=0;points=[];" vertex="1" connectable="0" parent="sPHakYDiKdlwhY-Nz_Ra-132">
          <mxGeometry x="-0.095" relative="1" as="geometry">
            <mxPoint as="offset" />
          </mxGeometry>
        </mxCell>
        <mxCell id="sPHakYDiKdlwhY-Nz_Ra-146" value="wPOKT Validator Node/s" style="rounded=1;whiteSpace=wrap;html=1;fillColor=#dae8fc;strokeColor=#6c8ebf;" vertex="1" parent="sPHakYDiKdlwhY-Nz_Ra-159">
          <mxGeometry x="345" y="780" width="560" height="120" as="geometry" />
        </mxCell>
        <mxCell id="sPHakYDiKdlwhY-Nz_Ra-136" value="10. Submit signed &quot;burn&quot; return transaction" style="edgeStyle=orthogonalEdgeStyle;rounded=0;orthogonalLoop=1;jettySize=auto;html=1;endArrow=none;endFill=0;startArrow=classic;startFill=1;entryX=0.25;entryY=0;entryDx=0;entryDy=0;" edge="1" parent="sPHakYDiKdlwhY-Nz_Ra-159" source="sPHakYDiKdlwhY-Nz_Ra-137" target="sPHakYDiKdlwhY-Nz_Ra-146">
          <mxGeometry x="0.4286" relative="1" as="geometry">
            <Array as="points">
              <mxPoint x="385" y="700" />
              <mxPoint x="485" y="700" />
            </Array>
            <mxPoint y="-1" as="offset" />
          </mxGeometry>
        </mxCell>
        <mxCell id="sPHakYDiKdlwhY-Nz_Ra-156" value="11. Wait for return transaction to be confirmed" style="edgeStyle=orthogonalEdgeStyle;rounded=0;orthogonalLoop=1;jettySize=auto;html=1;entryX=0.5;entryY=0;entryDx=0;entryDy=0;exitX=1;exitY=0.75;exitDx=0;exitDy=0;" edge="1" parent="sPHakYDiKdlwhY-Nz_Ra-159" source="sPHakYDiKdlwhY-Nz_Ra-137" target="sPHakYDiKdlwhY-Nz_Ra-146">
          <mxGeometry x="0.2916" relative="1" as="geometry">
            <Array as="points">
              <mxPoint x="536" y="680" />
              <mxPoint x="625" y="680" />
            </Array>
            <mxPoint as="offset" />
          </mxGeometry>
        </mxCell>
        <mxCell id="sPHakYDiKdlwhY-Nz_Ra-147" value="MongoDB Replica Set" style="shape=cylinder3;whiteSpace=wrap;html=1;boundedLbl=1;backgroundOutline=1;size=15;fillColor=#f8cecc;strokeColor=#b85450;" vertex="1" parent="sPHakYDiKdlwhY-Nz_Ra-159">
          <mxGeometry x="345" y="1130" width="560" height="132.5" as="geometry" />
        </mxCell>
        <mxCell id="sPHakYDiKdlwhY-Nz_Ra-131" value="&lt;span style=&quot;color: rgb(0, 0, 0); font-family: Helvetica; font-size: 11px; font-style: normal; font-variant-ligatures: normal; font-variant-caps: normal; font-weight: 400; letter-spacing: normal; orphans: 2; text-align: center; text-indent: 0px; text-transform: none; widows: 2; word-spacing: 0px; -webkit-text-stroke-width: 0px; background-color: rgb(255, 255, 255); text-decoration-thickness: initial; text-decoration-style: initial; text-decoration-color: initial; float: none; display: inline !important;&quot;&gt;16. Read &quot;burn&quot; status&lt;/span&gt;" style="edgeStyle=orthogonalEdgeStyle;rounded=0;orthogonalLoop=1;jettySize=auto;html=1;entryX=1;entryY=0;entryDx=0;entryDy=91.875;entryPerimeter=0;startArrow=classic;startFill=1;endArrow=none;endFill=0;exitX=1;exitY=0.75;exitDx=0;exitDy=0;" edge="1" parent="sPHakYDiKdlwhY-Nz_Ra-159" source="sPHakYDiKdlwhY-Nz_Ra-134" target="sPHakYDiKdlwhY-Nz_Ra-147">
          <mxGeometry x="-0.0951" relative="1" as="geometry">
            <Array as="points">
              <mxPoint x="1125" y="390" />
              <mxPoint x="1125" y="1222" />
            </Array>
            <mxPoint as="offset" />
          </mxGeometry>
        </mxCell>
        <mxCell id="sPHakYDiKdlwhY-Nz_Ra-141" value="&lt;span style=&quot;border-color: var(--border-color); color: rgb(0, 0, 0); font-family: Helvetica; font-size: 11px; font-style: normal; font-variant-ligatures: normal; font-variant-caps: normal; font-weight: 400; letter-spacing: normal; orphans: 2; text-align: center; text-indent: 0px; text-transform: none; widows: 2; word-spacing: 0px; -webkit-text-stroke-width: 0px; background-color: rgb(255, 255, 255); text-decoration-thickness: initial; text-decoration-style: initial; text-decoration-color: initial; float: none; display: inline !important;&quot;&gt;7. Wait for enough block confirmations &amp;amp; mark as &quot;confirmed&quot;&lt;/span&gt;" style="edgeStyle=orthogonalEdgeStyle;rounded=0;orthogonalLoop=1;jettySize=auto;html=1;entryX=0;entryY=0;entryDx=0;entryDy=40.625;entryPerimeter=0;startArrow=classic;startFill=1;exitX=0;exitY=0.5;exitDx=0;exitDy=0;" edge="1" parent="sPHakYDiKdlwhY-Nz_Ra-159" source="sPHakYDiKdlwhY-Nz_Ra-146" target="sPHakYDiKdlwhY-Nz_Ra-147">
          <mxGeometry x="0.0575" relative="1" as="geometry">
            <mxPoint x="465" y="950" as="sourcePoint" />
            <mxPoint x="505.5799999999999" y="1523.4500000000003" as="targetPoint" />
            <Array as="points">
              <mxPoint x="255" y="840" />
              <mxPoint x="255" y="1170" />
              <mxPoint x="345" y="1170" />
            </Array>
            <mxPoint as="offset" />
          </mxGeometry>
        </mxCell>
        <mxCell id="sPHakYDiKdlwhY-Nz_Ra-142" value="&lt;span style=&quot;color: rgb(0, 0, 0); font-family: Helvetica; font-size: 11px; font-style: normal; font-variant-ligatures: normal; font-variant-caps: normal; font-weight: 400; letter-spacing: normal; orphans: 2; text-align: center; text-indent: 0px; text-transform: none; widows: 2; word-spacing: 0px; -webkit-text-stroke-width: 0px; background-color: rgb(255, 255, 255); text-decoration-thickness: initial; text-decoration-style: initial; text-decoration-color: initial; float: none; display: inline !important;&quot;&gt;6. Validate event and store &quot;burn&quot; in DB as &quot;pending&quot;&lt;/span&gt;" style="edgeStyle=orthogonalEdgeStyle;rounded=0;orthogonalLoop=1;jettySize=auto;html=1;entryX=0;entryY=0.5;entryDx=0;entryDy=0;entryPerimeter=0;exitX=0;exitY=0.25;exitDx=0;exitDy=0;" edge="1" parent="sPHakYDiKdlwhY-Nz_Ra-159" source="sPHakYDiKdlwhY-Nz_Ra-146" target="sPHakYDiKdlwhY-Nz_Ra-147">
          <mxGeometry x="-0.2743" relative="1" as="geometry">
            <Array as="points">
              <mxPoint x="225" y="810" />
              <mxPoint x="225" y="1196" />
              <mxPoint x="345" y="1196" />
            </Array>
            <mxPoint y="-1" as="offset" />
          </mxGeometry>
        </mxCell>
        <mxCell id="sPHakYDiKdlwhY-Nz_Ra-143" value="&lt;span style=&quot;border-color: var(--border-color); color: rgb(0, 0, 0); font-family: Helvetica; font-size: 11px; font-style: normal; font-variant-ligatures: normal; font-variant-caps: normal; font-weight: 400; letter-spacing: normal; orphans: 2; text-align: center; text-indent: 0px; text-transform: none; widows: 2; word-spacing: 0px; -webkit-text-stroke-width: 0px; background-color: rgb(255, 255, 255); text-decoration-thickness: initial; text-decoration-style: initial; text-decoration-color: initial; float: none; display: inline !important;&quot;&gt;8. Sign &quot;burn&quot; return tranastion &amp;amp; store signed transaction in DB&lt;/span&gt;" style="edgeStyle=orthogonalEdgeStyle;rounded=0;orthogonalLoop=1;jettySize=auto;html=1;exitX=0;exitY=0.75;exitDx=0;exitDy=0;entryX=0.145;entryY=0;entryDx=0;entryDy=4.35;entryPerimeter=0;" edge="1" parent="sPHakYDiKdlwhY-Nz_Ra-159" source="sPHakYDiKdlwhY-Nz_Ra-146" target="sPHakYDiKdlwhY-Nz_Ra-147">
          <mxGeometry x="0.584" relative="1" as="geometry">
            <Array as="points">
              <mxPoint x="315" y="870" />
              <mxPoint x="315" y="1000" />
              <mxPoint x="426" y="1000" />
            </Array>
            <mxPoint as="offset" />
          </mxGeometry>
        </mxCell>
        <mxCell id="sPHakYDiKdlwhY-Nz_Ra-144" value="&lt;span style=&quot;color: rgb(0, 0, 0); font-family: Helvetica; font-size: 11px; font-style: normal; font-variant-ligatures: normal; font-variant-caps: normal; font-weight: 400; letter-spacing: normal; orphans: 2; text-align: center; text-indent: 0px; text-transform: none; widows: 2; word-spacing: 0px; -webkit-text-stroke-width: 0px; background-color: rgb(255, 255, 255); text-decoration-thickness: initial; text-decoration-style: initial; text-decoration-color: initial; float: none; display: inline !important;&quot;&gt;9. Once all signatures are obtained, mark &quot;burn&quot; as &quot;signed&quot;&lt;/span&gt;" style="edgeStyle=orthogonalEdgeStyle;rounded=0;orthogonalLoop=1;jettySize=auto;html=1;entryX=0.5;entryY=0;entryDx=0;entryDy=0;entryPerimeter=0;exitX=0.25;exitY=1;exitDx=0;exitDy=0;" edge="1" parent="sPHakYDiKdlwhY-Nz_Ra-159" source="sPHakYDiKdlwhY-Nz_Ra-146" target="sPHakYDiKdlwhY-Nz_Ra-147">
          <mxGeometry x="0.3562" y="1" relative="1" as="geometry">
            <mxPoint x="865" y="1430" as="targetPoint" />
            <Array as="points">
              <mxPoint x="485" y="970" />
              <mxPoint x="625" y="970" />
            </Array>
            <mxPoint as="offset" />
          </mxGeometry>
        </mxCell>
        <mxCell id="sPHakYDiKdlwhY-Nz_Ra-145" value="&lt;span style=&quot;color: rgb(0, 0, 0); font-family: Helvetica; font-size: 11px; font-style: normal; font-variant-ligatures: normal; font-variant-caps: normal; font-weight: 400; letter-spacing: normal; orphans: 2; text-align: center; text-indent: 0px; text-transform: none; widows: 2; word-spacing: 0px; -webkit-text-stroke-width: 0px; background-color: rgb(255, 255, 255); text-decoration-thickness: initial; text-decoration-style: initial; text-decoration-color: initial; float: none; display: inline !important;&quot;&gt;15. Mark &quot;burn&quot; as &quot;success&quot;&lt;/span&gt;" style="edgeStyle=orthogonalEdgeStyle;rounded=0;orthogonalLoop=1;jettySize=auto;html=1;entryX=1;entryY=0;entryDx=0;entryDy=40.625;entryPerimeter=0;exitX=1;exitY=0.5;exitDx=0;exitDy=0;" edge="1" parent="sPHakYDiKdlwhY-Nz_Ra-159" source="sPHakYDiKdlwhY-Nz_Ra-146" target="sPHakYDiKdlwhY-Nz_Ra-147">
          <mxGeometry relative="1" as="geometry">
            <mxPoint x="905" y="960" as="sourcePoint" />
            <mxPoint x="905" y="1460" as="targetPoint" />
            <Array as="points">
              <mxPoint x="1025" y="840" />
              <mxPoint x="1025" y="1171" />
            </Array>
          </mxGeometry>
        </mxCell>
        <mxCell id="sPHakYDiKdlwhY-Nz_Ra-155" value="11. Mark &quot;burn&quot; as &quot;submitted&quot;" style="edgeStyle=orthogonalEdgeStyle;rounded=0;orthogonalLoop=1;jettySize=auto;html=1;entryX=0.855;entryY=0;entryDx=0;entryDy=4.35;entryPerimeter=0;exitX=0.75;exitY=1;exitDx=0;exitDy=0;" edge="1" parent="sPHakYDiKdlwhY-Nz_Ra-159" source="sPHakYDiKdlwhY-Nz_Ra-146" target="sPHakYDiKdlwhY-Nz_Ra-147">
          <mxGeometry relative="1" as="geometry">
            <Array as="points">
              <mxPoint x="765" y="950" />
              <mxPoint x="824" y="950" />
            </Array>
          </mxGeometry>
        </mxCell>
        <mxCell id="sPHakYDiKdlwhY-Nz_Ra-150" value="5. Monitor for &quot;BurnAndBridge&quot; events" style="edgeStyle=orthogonalEdgeStyle;rounded=0;orthogonalLoop=1;jettySize=auto;html=1;startArrow=classic;startFill=1;endArrow=none;endFill=0;entryX=0.75;entryY=0;entryDx=0;entryDy=0;" edge="1" parent="sPHakYDiKdlwhY-Nz_Ra-159" source="sPHakYDiKdlwhY-Nz_Ra-151" target="sPHakYDiKdlwhY-Nz_Ra-146">
          <mxGeometry x="-0.7143" relative="1" as="geometry">
            <mxPoint x="600" y="1850" as="targetPoint" />
            <mxPoint y="1" as="offset" />
          </mxGeometry>
        </mxCell>
        <mxCell id="sPHakYDiKdlwhY-Nz_Ra-151" value="Ethereum Network" style="shape=hexagon;perimeter=hexagonPerimeter2;whiteSpace=wrap;html=1;fixedSize=1;fillColor=#f5f5f5;fontColor=#333333;strokeColor=#666666;" vertex="1" parent="sPHakYDiKdlwhY-Nz_Ra-159">
          <mxGeometry x="705" y="570" width="320" height="100" as="geometry" />
        </mxCell>
        <mxCell id="sPHakYDiKdlwhY-Nz_Ra-127" value="2. Post BurnAndBridge transaction" style="edgeStyle=orthogonalEdgeStyle;rounded=0;orthogonalLoop=1;jettySize=auto;html=1;entryX=0;entryY=0.5;entryDx=0;entryDy=0;" edge="1" parent="sPHakYDiKdlwhY-Nz_Ra-159" source="sPHakYDiKdlwhY-Nz_Ra-134" target="sPHakYDiKdlwhY-Nz_Ra-151">
          <mxGeometry x="-0.2949" y="2" relative="1" as="geometry">
            <Array as="points">
              <mxPoint x="593" y="620" />
            </Array>
            <mxPoint as="offset" />
          </mxGeometry>
        </mxCell>
        <mxCell id="sPHakYDiKdlwhY-Nz_Ra-129" value="&lt;span style=&quot;color: rgb(0, 0, 0); font-family: Helvetica; font-size: 11px; font-style: normal; font-variant-ligatures: normal; font-variant-caps: normal; font-weight: 400; letter-spacing: normal; orphans: 2; text-align: center; text-indent: 0px; text-transform: none; widows: 2; word-spacing: 0px; -webkit-text-stroke-width: 0px; background-color: rgb(255, 255, 255); text-decoration-thickness: initial; text-decoration-style: initial; text-decoration-color: initial; float: none; display: inline !important;&quot;&gt;3. Respond with Transaction Hash&lt;br&gt;&lt;/span&gt;" style="edgeStyle=orthogonalEdgeStyle;rounded=0;orthogonalLoop=1;jettySize=auto;html=1;entryX=0.5;entryY=0;entryDx=0;entryDy=0;startArrow=classic;startFill=1;endArrow=none;endFill=0;" edge="1" parent="sPHakYDiKdlwhY-Nz_Ra-159" source="sPHakYDiKdlwhY-Nz_Ra-134" target="sPHakYDiKdlwhY-Nz_Ra-151">
          <mxGeometry x="-0.3684" relative="1" as="geometry">
            <Array as="points">
              <mxPoint x="825" y="510" />
              <mxPoint x="865" y="510" />
            </Array>
            <mxPoint as="offset" />
          </mxGeometry>
        </mxCell>
        <mxCell id="sPHakYDiKdlwhY-Nz_Ra-152" value="&lt;font style=&quot;font-size: 18px;&quot;&gt;Burn Flow&lt;/font&gt;" style="text;html=1;strokeColor=none;fillColor=none;align=center;verticalAlign=middle;whiteSpace=wrap;rounded=0;" vertex="1" parent="sPHakYDiKdlwhY-Nz_Ra-159">
          <mxGeometry x="535" y="1320" width="180" height="30" as="geometry" />
        </mxCell>
      </root>
    </mxGraphModel>
  </diagram>
</mxfile>
